name C:\Users\u0101727\Documents\MyRepositories\upper-imu-dc\Results\main_tracking\Case_71\kinematics.mot
datacolumns 10
datarows 37
range 0.70000000 1.06000000
endheader 
time	clav_prot	clav_elev	scapula_abduction	scapula_elevation	scapula_upward_rot	scapula_winging	plane_elv	shoulder_elv	axial_rot	
          0.70000000	        -18.59442535	         -3.79971157	         -5.18769780	         -3.73109850	         13.85199947	          4.64663248	        -21.41601008	         15.72354489	         40.14797325	
          0.71000000	        -18.57369139	         -3.91289876	         -5.12030285	         -3.72957456	         13.84380484	          4.65107985	        -21.40455014	         15.71453841	         40.35977132	
          0.72000000	        -18.58870617	         -3.91200131	         -5.15091902	         -3.72787801	         13.83691712	          4.65503606	        -21.39274749	         15.70759607	         40.57055857	
          0.73000000	        -18.60359597	         -3.91127652	         -5.18164787	         -3.72614053	         13.82939168	          4.65917953	        -21.38040814	         15.70029658	         40.77833403	
          0.74000000	        -18.61822988	         -3.91079713	         -5.21265200	         -3.72422860	         13.82053075	          4.66368948	        -21.36704847	         15.69212051	         40.98049801	
          0.75000000	        -18.63259542	         -3.91029822	         -5.24411943	         -3.72187403	         13.81008576	          4.66854936	        -21.35195259	         15.68324093	         41.17395667	
          0.76000000	        -18.64671696	         -3.90933520	         -5.27625846	         -3.71871225	         13.79795768	          4.67365705	        -21.33418514	         15.67410165	         41.35526543	
          0.77000000	        -18.66062013	         -3.90733476	         -5.30928317	         -3.71429258	         13.78409458	          4.67886051	        -21.31259627	         15.66524194	         41.52081165	
          0.78000000	        -18.67431289	         -3.90360730	         -5.34339242	         -3.70808004	         13.76846618	          4.68396528	        -21.28582822	         15.65721403	         41.66700783	
          0.79000000	        -18.68777391	         -3.89734553	         -5.37874561	         -3.69945560	         13.75107111	          4.68873082	        -21.25232729	         15.65053683	         41.79047013	
          0.80000000	        -18.70094731	         -3.88761459	         -5.41545129	         -3.68771054	         13.73194563	          4.69286544	        -21.21036844	         15.64566750	         41.88816228	
          0.81000000	        -18.71373731	         -3.87334378	         -5.45354870	         -3.67204503	         13.71118332	          4.69601922	        -21.15807955	         15.64297957	         41.95749288	
          0.82000000	        -18.72599950	         -3.85331322	         -5.49298667	         -3.65156195	         13.68895198	          4.69777635	        -21.09346820	         15.64274458	         41.99636238	
          0.83000000	        -18.73754643	         -3.82615958	         -5.53362579	         -3.62527499	         13.66550647	          4.69765707	        -21.01445014	         15.64512302	         42.00316556	
          0.84000000	        -18.74815228	         -3.79038644	         -5.57523895	         -3.59211998	         13.64120005	          4.69512215	        -20.91887770	         15.65015640	         41.97675820	
          0.85000000	        -18.75756062	         -3.74438459	         -5.61751697	         -3.55097334	         13.61649325	          4.68958231	        -20.80456994	         15.65776253	         41.91640300	
          0.86000000	        -18.76549471	         -3.68646187	         -5.66007810	         -3.50067743	         13.59196014	          4.68041236	        -20.66934977	         15.66773279	         41.82170830	
          0.87000000	        -18.77166830	         -3.61488144	         -5.70247735	         -3.44007232	         13.56829389	          4.66696890	        -20.51109107	         15.67972942	         41.69257550	
          0.88000000	        -18.77579653	         -3.52790670	         -5.74421392	         -3.36803287	         13.54631306	          4.64861004	        -20.32777704	         15.69328078	         41.52916993	
          0.89000000	        -18.77760777	         -3.42385044	         -5.78473798	         -3.28350987	         13.52697074	          4.62471580	        -20.11757028	         15.70777212	         41.33192073	
          0.90000000	        -18.77685503	         -3.30112736	         -5.82345502	         -3.18557411	         13.51136421	          4.59470835	        -19.87889475	         15.72243495	         41.10154650	
          0.91000000	        -18.77332495	         -3.15830699	         -5.85972568	         -3.07346029	         13.50074433	          4.55807060	        -19.61052405	         15.73633768	         40.83910595	
          0.92000000	        -18.76684634	         -2.99416628	         -5.89286577	         -2.94660993	         13.49652138	          4.51436291	        -19.31167627	         15.74838036	         40.54606345	
          0.93000000	        -18.75729861	         -2.80773913	         -5.92214859	         -2.80471018	         13.50026564	          4.46323698	        -18.98210687	         15.75729621	         40.22435714	
          0.94000000	        -18.74462111	         -2.59836136	         -5.94681292	         -2.64772682	         13.51369939	          4.40444661	        -18.62219233	         15.76166388	         39.87645651	
          0.95000000	        -18.72882370	         -2.36570755	         -5.96607890	         -2.47592801	         13.53867855	          4.33785439	        -18.23299430	         15.75993126	         39.50539901	
          0.96000000	        -18.70999768	         -2.10981832	         -5.97917228	         -2.28989685	         13.57716084	          4.26343459	        -17.81629389	         15.75045309	         39.11479431	
          0.97000000	        -18.68832748	         -1.83111376	         -5.98535786	         -2.09052964	         13.63116206	          4.18127130	        -17.37458562	         15.73153877	         38.70878257	
          0.98000000	        -18.66410247	         -1.53038862	         -5.98398120	         -1.87901726	         13.70270259	          4.09155109	        -16.91102035	         15.70150595	         38.29193565	
          0.99000000	        -18.63772719	         -1.20878781	         -5.97451562	         -1.65680904	         13.79374669	          3.99455096	        -16.42929322	         15.65873589	         37.86910480	
          1.00000000	        -18.60972832	         -0.86776214	         -5.95660962	         -1.42556027	         13.90613935	          3.89062224	        -15.93348198	         15.60172465	         37.44523514	
          1.01000000	        -18.58075590	         -0.50900650	         -5.93012836	         -1.18706659	         14.04154576	          3.78017186	        -15.42785093	         15.52912555	         37.02517789	
          1.02000000	        -18.55157605	         -0.13438579	         -5.89518183	         -0.94319042	         14.20139753	          3.66364282	        -14.91664300	         15.43978040	         36.61353378	
          1.03000000	        -18.52305331	          0.25414433	         -5.85213397	         -0.69578554	         14.38684830	          3.54149607	        -14.40388503	         15.33274000	         36.21455255	
          1.04000000	        -18.49612235	          0.65461444	         -5.80159031	         -0.44662601	         14.59873977	          3.41419580	        -13.89322600	         15.20727589	         35.83209400	
          1.05000000	        -18.47175173	          1.06511002	         -5.74436749	         -0.19734449	         14.83757814	          3.28219948	        -13.38781735	         15.06288639	         35.46963257	
          1.06000000	        -18.45090427	          1.48382746	         -5.68145091	          0.05061660	         15.10352109	          3.14595314	        -12.89023421	         14.89929895	         35.13027289	
